<svg xmlns="http://www.w3.org/2000/svg" viewBox="0 0 500 500" width="500" height="500">
  <style>
    .st0{fill:#FFFFFF;}
    .st1{fill:#F0F0F0;}
    .st2{fill:#E0E0E0;}
    .st3{fill:#FFFFFF;stroke:#E0E0F0;stroke-width:1;}
    .st4{fill:#1890FF;}
    .st5{fill:#36CFC9;}
  </style>
  <g>
    <circle class="st0" cx="250" cy="250" r="200"/>
    <path class="st4" d="M250,120c-20,0-40,4-58.3,11.7c-17.7,7.5-33.7,18.5-47.3,32.2c-13.7,13.7-24.7,29.7-32.2,47.3 C104.5,229.5,100,249.5,100,270s4.5,40.5,12.2,58.8c7.5,17.7,18.5,33.7,32.2,47.3c13.7,13.7,29.7,24.7,47.3,32.2 c18.3,7.7,38.3,12.2,58.3,12.2s40-4.5,58.3-12.2c17.7-7.5,33.7-18.5,47.3-32.2c13.7-13.7,24.7-29.7,32.2-47.3 c7.7-18.3,12.2-38.3,12.2-58.8s-4.5-40.5-12.2-58.8c-7.5-17.7-18.5-33.7-32.2-47.3c-13.7-13.7-29.7-24.7-47.3-32.2 C290,124,270,120,250,120z M250,350c-44.2,0-80-35.8-80-80s35.8-80,80-80s80,35.8,80,80S294.2,350,250,350z"/>
    <circle class="st0" cx="250" cy="270" r="60"/>
    <path class="st5" d="M310,270c0,33.1-26.9,60-60,60s-60-26.9-60-60s26.9-60,60-60S310,236.9,310,270z M250,230 c-22.1,0-40,17.9-40,40s17.9,40,40,40s40-17.9,40-40S272.1,230,250,230z"/>
    <rect class="st3" x="220" y="260" width="60" height="20" rx="5"/>
    <rect class="st3" x="220" y="290" width="60" height="20" rx="5"/>
    <rect class="st3" x="220" y="230" width="60" height="20" rx="5"/>
    <circle class="st4" cx="200" cy="240" r="5"/>
    <circle class="st4" cx="200" cy="270" r="5"/>
    <circle class="st4" cx="200" cy="300" r="5"/>
    <path class="st2" d="M180,190c-5.5,0-10,4.5-10,10v140c0,5.5,4.5,10,10,10h140c5.5,0,10-4.5,10-10V200c0-5.5-4.5-10-10-10H180z M180,180h140c11,0,20,9,20,20v140c0,11-9,20-20,20H180c-11,0-20-9-20-20V200C160,189,169,180,180,180z"/>
  </g>
</svg>